<?xml version="1.0" encoding="UTF-8"?><svg id="Gruppe_17" xmlns="http://www.w3.org/2000/svg" xmlns:xlink="http://www.w3.org/1999/xlink" viewBox="0 0 244.61 94.7"><defs><style>.cls-1{isolation:isolate;}.cls-2{fill:#262226;}.cls-3{clip-path:url(#clippath);}.cls-4{fill:none;}</style><clipPath id="clippath"><rect class="cls-4" y=".46" width="244.61" height="88.34"/></clipPath></defs><g class="cls-3"><g id="Gruppe_16"><path id="Pfad_12" class="cls-2" d="m16.94,40.76H1.4c-.69-.03-1.27.59-1.3,1.38v22.11c.02.79.6,1.41,1.3,1.38h1.3v1.38c.02.79.6,1.41,1.3,1.38.69.03,1.27-.59,1.3-1.38,0,0,0,0,0,0v-1.38h11.65c2.07.08,3.81-1.78,3.89-4.15v-16.58c-.07-2.37-1.81-4.22-3.89-4.15m-3.88,22.11H2.7v-19.35h10.36v19.35Zm5.18-1.38c-.02.79-.6,1.41-1.3,1.38h-1.3v-19.35h1.3c.69-.03,1.27.59,1.3,1.38v16.58Z"/><g id="Notes" class="cls-1"><g class="cls-1"><path class="cls-2" d="m76.17,65.13h-7.98l-29.03-45.07h-.3c.1,1.77.23,3.98.38,6.61.15,2.63.23,5.35.23,8.13v30.32h-6.31V10.87h7.9l28.96,44.92h.3c-.05-.81-.11-2.03-.19-3.65-.08-1.62-.15-3.38-.23-5.28-.08-1.9-.11-3.69-.11-5.36V10.87h6.38v54.26Z"/><path class="cls-2" d="m125.42,44.69c0,6.74-1.71,11.96-5.13,15.66-3.42,3.7-8.04,5.55-13.87,5.55-3.6,0-6.8-.82-9.61-2.47-2.81-1.65-5.03-4.05-6.65-7.22-1.62-3.17-2.43-7-2.43-11.51,0-6.74,1.68-11.93,5.05-15.58,3.37-3.65,7.99-5.47,13.87-5.47,3.65,0,6.89.82,9.73,2.47,2.84,1.65,5.05,4.03,6.65,7.14,1.6,3.12,2.39,6.93,2.39,11.44Zm-30.78,0c0,4.81.95,8.63,2.85,11.44,1.9,2.81,4.93,4.22,9.08,4.22s7.12-1.41,9.04-4.22c1.93-2.81,2.89-6.62,2.89-11.44s-.96-8.59-2.89-11.32c-1.93-2.74-4.97-4.1-9.12-4.1s-7.17,1.37-9.04,4.1c-1.88,2.74-2.81,6.51-2.81,11.32Z"/><path class="cls-2" d="m149.58,60.42c1.01,0,2.05-.08,3.12-.23,1.06-.15,1.92-.35,2.58-.61v5.09c-.71.36-1.72.65-3.04.87-1.32.23-2.58.34-3.8.34-2.13,0-4.09-.37-5.89-1.1-1.8-.73-3.26-2.01-4.37-3.84-1.12-1.82-1.67-4.38-1.67-7.68v-23.71h-5.78v-3.19l5.85-2.66,2.66-8.66h3.95v9.35h11.78v5.17h-11.78v23.56c0,2.48.59,4.32,1.79,5.51,1.19,1.19,2.72,1.79,4.6,1.79Z"/><path class="cls-2" d="m179.15,23.64c3.45,0,6.43.76,8.97,2.28,2.53,1.52,4.47,3.66,5.81,6.42,1.34,2.76,2.01,5.99,2.01,9.69v4.03h-27.89c.1,4.61,1.28,8.12,3.53,10.53,2.25,2.41,5.41,3.61,9.46,3.61,2.58,0,4.88-.24,6.88-.72,2-.48,4.07-1.18,6.19-2.09v5.85c-2.08.91-4.13,1.58-6.16,2.01-2.03.43-4.43.65-7.22.65-3.9,0-7.32-.79-10.26-2.36s-5.23-3.9-6.88-6.99c-1.65-3.09-2.47-6.92-2.47-11.48s.75-8.28,2.24-11.48c1.49-3.19,3.6-5.65,6.31-7.37,2.71-1.72,5.86-2.58,9.46-2.58Zm-.08,5.47c-3.19,0-5.71,1.03-7.56,3.08-1.85,2.05-2.95,4.9-3.31,8.55h20.75c-.05-3.44-.86-6.24-2.43-8.4-1.57-2.15-4.05-3.23-7.45-3.23Z"/><path class="cls-2" d="m232.8,53.88c0,3.95-1.47,6.94-4.41,8.97-2.94,2.03-6.89,3.04-11.86,3.04-2.84,0-5.28-.23-7.33-.68s-3.86-1.09-5.43-1.9v-6.08c1.62.81,3.58,1.56,5.89,2.24,2.3.68,4.65,1.03,7.03,1.03,3.39,0,5.85-.54,7.37-1.63,1.52-1.09,2.28-2.55,2.28-4.37,0-1.01-.28-1.92-.84-2.74-.56-.81-1.56-1.62-3-2.43-1.44-.81-3.51-1.72-6.19-2.74-2.64-1.01-4.89-2.03-6.76-3.04-1.88-1.01-3.32-2.23-4.33-3.65-1.01-1.42-1.52-3.24-1.52-5.47,0-3.45,1.41-6.1,4.22-7.98,2.81-1.87,6.5-2.81,11.06-2.81,2.48,0,4.8.25,6.95.76,2.15.51,4.17,1.17,6.04,1.98l-2.28,5.32c-1.72-.71-3.52-1.32-5.4-1.82-1.88-.51-3.8-.76-5.78-.76-2.74,0-4.83.44-6.27,1.33-1.44.89-2.17,2.09-2.17,3.61,0,1.17.33,2.13.99,2.89.66.76,1.76,1.52,3.31,2.28,1.54.76,3.61,1.62,6.19,2.58,2.58.96,4.79,1.95,6.61,2.96,1.82,1.01,3.22,2.24,4.18,3.69.96,1.44,1.44,3.26,1.44,5.43Z"/></g></g></g></g></svg>