<svg xmlns="http://www.w3.org/2000/svg" width="25.6" height="32" viewBox="0 0 25.6 32">
  <path id="Pfad_18" data-name="Pfad 18" d="M12,14.8h1.6a1.6,1.6,0,0,0,0-3.2H12a1.6,1.6,0,0,0,0,3.2ZM12,18a1.6,1.6,0,1,0,0,3.2h9.6a1.6,1.6,0,0,0,0-3.2Zm17.6-4.9a2.1,2.1,0,0,0-.1-.432v-.144a1.712,1.712,0,0,0-.3-.448h0l-9.6-9.6h0a1.712,1.712,0,0,0-.448-.3.512.512,0,0,0-.144,0A1.408,1.408,0,0,0,18.48,2H8.8A4.8,4.8,0,0,0,4,6.8V29.2A4.8,4.8,0,0,0,8.8,34h16a4.8,4.8,0,0,0,4.8-4.8V13.1ZM20,7.456,24.144,11.6H21.6A1.6,1.6,0,0,1,20,10ZM26.4,29.2a1.6,1.6,0,0,1-1.6,1.6H8.8a1.6,1.6,0,0,1-1.6-1.6V6.8A1.6,1.6,0,0,1,8.8,5.2h8V10a4.8,4.8,0,0,0,4.8,4.8h4.8Zm-4.8-4.8H12a1.6,1.6,0,1,0,0,3.2h9.6a1.6,1.6,0,0,0,0-3.2Z" transform="translate(-4 -2)" fill="#262226"/>
</svg>