<svg xmlns="http://www.w3.org/2000/svg" width="32" height="32" viewBox="0 0 32 32">
  <path id="Pfad_3" data-name="Pfad 3" d="M31.242,19.054a1.579,1.579,0,0,1,0-2.112l2.085-2.3a1.578,1.578,0,0,0,.2-1.872L30.265,7.232a1.64,1.64,0,0,0-1.743-.768l-3.062.608a1.633,1.633,0,0,1-1.873-1.056l-.993-2.928A1.627,1.627,0,0,0,21.047,2H14.533A1.628,1.628,0,0,0,12.9,3.089l-.912,2.928a1.633,1.633,0,0,1-1.873,1.056L6.976,6.464a1.639,1.639,0,0,0-1.629.768L2.09,12.767a1.577,1.577,0,0,0,.163,1.872l2.068,2.3a1.579,1.579,0,0,1,0,2.112l-2.068,2.3A1.577,1.577,0,0,0,2.09,23.23l3.257,5.535a1.64,1.64,0,0,0,1.743.768l3.062-.608a1.633,1.633,0,0,1,1.873,1.056l.993,2.928A1.628,1.628,0,0,0,14.647,34h6.514a1.627,1.627,0,0,0,1.547-1.088l.993-2.928a1.633,1.633,0,0,1,1.873-1.056l3.062.608a1.64,1.64,0,0,0,1.743-.768l3.257-5.535a1.578,1.578,0,0,0-.2-1.872ZM28.815,21.2l1.3,1.44L28.034,26.19l-1.922-.384a4.9,4.9,0,0,0-5.619,3.2L19.874,30.8H15.705l-.586-1.824a4.9,4.9,0,0,0-5.619-3.2l-1.922.384L5.461,22.622l1.3-1.44a4.736,4.736,0,0,0,0-6.4l-1.3-1.44,2.085-3.52,1.922.384a4.9,4.9,0,0,0,5.619-3.2L15.705,5.2h4.169l.619,1.824a4.9,4.9,0,0,0,5.619,3.2l1.922-.384,2.085,3.552-1.3,1.44a4.736,4.736,0,0,0,0,6.367ZM17.79,11.6A6.4,6.4,0,1,0,24.3,18,6.458,6.458,0,0,0,17.79,11.6Zm0,9.6A3.2,3.2,0,1,1,21.047,18,3.229,3.229,0,0,1,17.79,21.2Z" transform="translate(-1.857 -1.999)" fill="#262226"/>
</svg>